<svg width="171" height="28" viewBox="0 0 171 28" fill="none" xmlns="http://www.w3.org/2000/svg">
    <path fill-rule="evenodd" clip-rule="evenodd" d="M0.830078 0.585938V27.491H59.5657V0.585938H0.830078ZM26.1313 9.26958V18.8074H27.9914C29.0448 18.8074 29.6332 18.4277 30.0033 17.8583C30.345 17.3838 30.4589 16.9188 30.4589 14.0337C30.4589 11.1771 30.345 10.6931 30.0033 10.2186C29.6237 9.64919 29.0448 9.26958 27.9914 9.26958H26.1313ZM32.8884 20.8668C31.7116 22.0341 30.0603 22.537 28.2761 22.537H21.9271V5.54938H28.2761C30.0603 5.54938 31.7116 6.05236 32.8884 7.21967C34.8908 9.20315 34.6726 11.3669 34.6726 14.0432C34.6726 16.71 34.8908 18.8833 32.8884 20.8668ZM19.7158 9.26958H15.5116V22.5276H11.3074V9.26958H7.09369V5.54938H19.7253V9.26958H19.7158ZM52.9509 22.5276H48.7372V14.4038L46.3077 18.5986H43.6124L41.1829 14.4038V22.537H36.9692V5.54938H41.107L44.9506 13.0372L48.7942 5.54938H52.9319V22.5276H52.9509Z" />
    <path fill-rule="evenodd" clip-rule="evenodd" d="M66.1331 22.5277V5.54956H77.0469V9.26977H70.081V12.1074H76.0315V15.8276H70.081V18.8075H77.0469V22.5277H66.1331Z" />
    <path fill-rule="evenodd" clip-rule="evenodd" d="M78.9541 22.5277V5.54956H82.8926V18.8075H89.6307V22.5277H78.9541Z" />
    <path fill-rule="evenodd" clip-rule="evenodd" d="M90.874 22.5277V5.54956H101.778V9.26977H94.8125V12.1074H100.763V15.8276H94.8125V18.8075H101.778V22.5277H90.874Z" />
    <path fill-rule="evenodd" clip-rule="evenodd" d="M109.01 22.6701C107.141 22.6701 105.717 22.0058 104.55 20.7626C102.86 18.9784 102.927 16.5868 102.927 14.0434C102.927 11.4905 102.86 9.09896 104.55 7.31478C105.717 6.08104 107.141 5.40723 109.01 5.40723C112.057 5.40723 114.505 7.19141 115.093 10.9401H111.079C110.832 9.99105 110.339 9.12743 109.029 9.12743C108.308 9.12743 107.776 9.44061 107.473 9.83921C107.112 10.3422 106.865 10.9401 106.865 14.0339C106.865 17.1373 107.112 17.7257 107.473 18.2287C107.767 18.6367 108.308 18.9404 109.029 18.9404C110.339 18.9404 110.832 18.0863 111.079 17.1278H115.093C114.505 20.8859 112.057 22.6701 109.01 22.6701Z" />
    <path fill-rule="evenodd" clip-rule="evenodd" d="M123.55 9.26977V22.5277H119.602V9.26977H115.663V5.54956H127.488V9.26977H123.55Z" />
    <path fill-rule="evenodd" clip-rule="evenodd" d="M134.9 9.28875H132.67V12.7242H134.9C135.982 12.7242 136.618 11.8891 136.618 11.0065C136.618 10.1239 135.982 9.28875 134.9 9.28875ZM136.836 22.5277L133.998 16.2072H132.67V22.5277H128.722V5.54956H135.08C138.639 5.54956 140.547 8.21634 140.547 11.016C140.547 13.3316 139.199 14.7836 137.937 15.448L141.401 22.5277H136.836Z" />
    <path fill-rule="evenodd" clip-rule="evenodd" d="M142.521 22.5277V5.54956H146.468V22.5277H142.521Z" />
    <path fill-rule="evenodd" clip-rule="evenodd" d="M154.308 22.6701C152.438 22.6701 151.015 22.0058 149.838 20.7626C148.149 18.9784 148.215 16.5868 148.215 14.0434C148.215 11.4905 148.149 9.09896 149.838 7.31478C151.015 6.08104 152.429 5.40723 154.308 5.40723C157.345 5.40723 159.803 7.19141 160.391 10.9401H156.386C156.14 9.99105 155.637 9.12743 154.336 9.12743C153.615 9.12743 153.065 9.44061 152.78 9.83921C152.419 10.3422 152.173 10.9401 152.173 14.0339C152.173 17.1373 152.419 17.7257 152.78 18.2287C153.065 18.6367 153.615 18.9404 154.336 18.9404C155.646 18.9404 156.14 18.0863 156.386 17.1278H160.391C159.803 20.8859 157.345 22.6701 154.308 22.6701Z" />
    <path d="M170.07 4.53364C170.07 6.80182 168.248 8.60499 165.923 8.60499C163.607 8.60499 161.757 6.80182 161.757 4.53364C161.757 2.26545 163.607 0.49076 165.952 0.49076C168.248 0.48127 170.07 2.26545 170.07 4.53364ZM162.791 4.53364C162.791 6.3368 164.148 7.76984 165.952 7.76984C167.707 7.79831 169.036 6.3368 169.036 4.56211C169.036 2.75895 167.707 1.30693 165.904 1.30693C164.148 1.29744 162.791 2.75895 162.791 4.53364ZM165.287 6.631H164.348V2.57863C164.718 2.53118 165.24 2.45526 165.904 2.45526C166.673 2.45526 167.014 2.57863 167.29 2.77793C167.536 2.94875 167.707 3.24295 167.707 3.64155C167.707 4.13504 167.337 4.45771 166.872 4.60007V4.64752C167.271 4.7709 167.461 5.09357 167.584 5.63451C167.707 6.25138 167.802 6.46966 167.878 6.62151H166.891C166.768 6.46966 166.692 6.12801 166.568 5.63451C166.493 5.21694 166.246 5.01764 165.733 5.01764H165.287V6.631ZM165.306 4.35332H165.752C166.274 4.35332 166.692 4.1825 166.692 3.76492C166.692 3.3948 166.417 3.14805 165.828 3.14805C165.581 3.14805 165.411 3.17652 165.306 3.1955V4.35332Z" />
</svg>
