<svg width="12" height="16" viewBox="0 0 12 16" fill="none" xmlns="http://www.w3.org/2000/svg">
<path fill-rule="evenodd" clip-rule="evenodd" d="M6 14.4992L6.52583 13.923C7.1225 13.2584 7.65917 12.6279 8.13667 12.0282L8.53083 11.5225C10.1767 9.36597 11 7.65435 11 6.38928C11 3.68895 8.76167 1.5 6 1.5C3.23833 1.5 1 3.68895 1 6.38928C1 7.65435 1.82333 9.36597 3.46917 11.5225L3.86333 12.0282C4.54453 12.877 5.25722 13.7007 6 14.4992Z"  stroke-linecap="round" stroke-linejoin="round"/>
<path d="M5.99935 8.38854C7.14994 8.38854 8.08268 7.48145 8.08268 6.36248C8.08268 5.24352 7.14994 4.33643 5.99935 4.33643C4.84876 4.33643 3.91602 5.24352 3.91602 6.36248C3.91602 7.48145 4.84876 8.38854 5.99935 8.38854Z"  stroke-linecap="round" stroke-linejoin="round"/>
</svg>