<svg  viewBox="0 0 22 24" fill="none" xmlns="http://www.w3.org/2000/svg">
<path d="M10.9996 3.25752e-07C12.4376 -0.000454272 13.8379 0.474908 14.9949 1.35632C16.1519 2.23772 17.0047 3.47876 17.4282 4.89726C17.8517 6.31576 17.8235 7.83703 17.3477 9.23778C16.872 10.6385 15.9738 11.845 14.785 12.6801C16.8485 13.4613 18.6382 14.8621 19.9238 16.7022C21.2094 18.5423 21.9321 20.7375 21.9988 23.0051C22.005 23.131 21.9869 23.2569 21.9453 23.3754C21.9038 23.4939 21.8398 23.6027 21.757 23.6953C21.6742 23.7879 21.5743 23.8626 21.4632 23.9148C21.352 23.9671 21.2319 23.9959 21.1099 23.9996C20.9879 24.0033 20.8663 23.9818 20.7524 23.9364C20.6385 23.8909 20.5346 23.8225 20.4467 23.735C20.3587 23.6476 20.2886 23.5429 20.2404 23.427C20.1922 23.3112 20.1669 23.1867 20.166 23.0606C20.0932 20.6014 19.0956 18.2681 17.3846 16.5552C15.6737 14.8422 13.3838 13.8842 11.0002 13.8842C8.61667 13.8842 6.32678 14.8422 4.6158 16.5552C2.90483 18.2681 1.90724 20.6014 1.83443 23.0606C1.82713 23.3117 1.72352 23.5495 1.54639 23.7216C1.36926 23.8938 1.13312 23.9863 0.88991 23.9788C0.646704 23.9713 0.416359 23.8643 0.249546 23.6815C0.0827327 23.4986 -0.00688312 23.2549 0.000413034 23.0039C0.0673523 20.7364 0.790133 18.5415 2.07574 16.7017C3.36134 14.8618 5.15093 13.4612 7.2142 12.6801C6.02538 11.845 5.12719 10.6385 4.65147 9.23778C4.17576 7.83703 4.14756 6.31576 4.57103 4.89726C4.9945 3.47876 5.84733 2.23772 7.00434 1.35632C8.16136 0.474908 9.56162 -0.000454272 10.9996 3.25752e-07ZM6.1089 6.94142C6.1089 8.28031 6.62417 9.56436 7.54136 10.5111C8.45854 11.4578 9.70251 11.9897 10.9996 11.9897C12.2967 11.9897 13.5407 11.4578 14.4579 10.5111C15.375 9.56436 15.8903 8.28031 15.8903 6.94142C15.8903 5.60252 15.375 4.31847 14.4579 3.37173C13.5407 2.42499 12.2967 1.89311 10.9996 1.89311C9.70251 1.89311 8.45854 2.42499 7.54136 3.37173C6.62417 4.31847 6.1089 5.60252 6.1089 6.94142Z" />
</svg>
