<svg width="16" height="16" viewBox="0 0 16 16" fill="none" xmlns="http://www.w3.org/2000/svg">
<path d="M13.6875 8.66412C13.6875 8.60611 13.6645 8.55047 13.6234 8.50945C13.5824 8.46842 13.5268 8.44537 13.4688 8.44537H7.5625V2.53125C7.5625 2.47323 7.53945 2.41759 7.49843 2.37657C7.45741 2.33555 7.40177 2.3125 7.34375 2.3125C3.84594 2.3125 1 5.15406 1 8.64706C1 12.2687 3.73131 15 7.35294 15C10.7274 15 13.6875 12.039 13.6875 8.66412ZM1.4375 8.64706C1.4375 5.46819 3.96931 2.86944 7.125 2.75394V8.66412C7.125 8.78487 7.223 8.88287 7.34375 8.875H13.2456C13.1218 11.9331 10.4216 14.5625 7.35294 14.5625C3.98069 14.5625 1.4375 12.0197 1.4375 8.64706Z"  stroke-width="0.4"/>
<path d="M8.65625 7.5625H14.7808C14.9016 7.57037 15 7.4645 15 7.34375C15 3.84594 12.1541 1 8.65625 1C8.59823 1 8.54259 1.02305 8.50157 1.06407C8.46055 1.10509 8.4375 1.16073 8.4375 1.21875V7.35162C8.4375 7.47237 8.5355 7.57037 8.65625 7.5625ZM8.875 1.44144C11.9651 1.55475 14.4571 4.05331 14.5599 7.13287H8.875V1.44144Z"  stroke-width="0.4"/>
</svg>
