<svg width="15" height="15" viewBox="0 0 15 15" fill="none" xmlns="http://www.w3.org/2000/svg">
<circle cx="7.5" cy="7.5" r="7" />
<path d="M6.64222 9.37763V9.33461C6.64753 8.87811 6.70068 8.51482 6.80166 8.24474C6.90264 7.97467 7.04613 7.75598 7.23214 7.58867C7.41815 7.42137 7.64137 7.26721 7.90179 7.1262C8.05857 7.04015 8.1994 6.93858 8.3243 6.82146C8.44919 6.70196 8.54751 6.56453 8.61926 6.40918C8.69366 6.25382 8.73087 6.08174 8.73087 5.89293C8.73087 5.6587 8.66975 5.45555 8.54751 5.28346C8.42528 5.11138 8.26185 4.97873 8.05724 4.88552C7.85263 4.7923 7.62543 4.7457 7.37564 4.7457C7.15774 4.7457 6.94781 4.78633 6.74585 4.86759C6.5439 4.94885 6.37516 5.07672 6.23964 5.2512C6.10411 5.42567 6.02572 5.65392 6.00446 5.93595H5C5.02126 5.52964 5.13818 5.18188 5.35077 4.89269C5.56601 4.60349 5.84901 4.38241 6.19978 4.22945C6.5532 4.07648 6.94515 4 7.37564 4C7.84332 4 8.24989 4.08365 8.59534 4.25096C8.94345 4.41826 9.21184 4.64771 9.40051 4.93929C9.59184 5.23088 9.6875 5.5631 9.6875 5.93595C9.6875 6.19885 9.64233 6.43666 9.55198 6.64938C9.46429 6.86209 9.33673 7.0521 9.16932 7.21941C9.00457 7.38671 8.80527 7.53489 8.57143 7.66396C8.33758 7.79541 8.15024 7.93403 8.00941 8.07983C7.86857 8.22323 7.76626 8.39412 7.70249 8.5925C7.63871 8.79087 7.60417 9.03824 7.59885 9.33461V9.37763H6.64222ZM7.15242 11.5C6.95578 11.5 6.78704 11.4367 6.64621 11.31C6.50537 11.1833 6.43495 11.0315 6.43495 10.8547C6.43495 10.6778 6.50537 10.5261 6.64621 10.3994C6.78704 10.2727 6.95578 10.2094 7.15242 10.2094C7.34906 10.2094 7.5178 10.2727 7.65864 10.3994C7.79948 10.5261 7.8699 10.6778 7.8699 10.8547C7.8699 10.9718 7.83668 11.0794 7.77025 11.1773C7.70647 11.2753 7.62011 11.3542 7.51116 11.414C7.40487 11.4713 7.28529 11.5 7.15242 11.5Z" />
</svg>
