<svg width="20" height="20" viewBox="0 0 20 20" fill="none" xmlns="http://www.w3.org/2000/svg">
<path d="M18.3245 18.4075L14.2609 14.3058M14.2609 14.3058C14.956 13.6042 15.5074 12.7713 15.8836 11.8546C16.2598 10.9379 16.4534 9.95536 16.4534 8.96313C16.4534 7.97091 16.2598 6.9884 15.8836 6.07171C15.5074 5.15501 14.956 4.32208 14.2609 3.62047C13.5659 2.91887 12.7407 2.36232 11.8325 1.98261C10.9243 1.6029 9.95092 1.40747 8.96791 1.40747C7.9849 1.40747 7.01152 1.6029 6.10334 1.98261C5.19516 2.36232 4.36996 2.91887 3.67487 3.62047C2.27107 5.03744 1.48242 6.95925 1.48242 8.96313C1.48242 10.967 2.27107 12.8888 3.67487 14.3058C5.07867 15.7228 6.98263 16.5188 8.96791 16.5188C10.9532 16.5188 12.8571 15.7228 14.2609 14.3058Z"  stroke-width="2" stroke-linecap="round" stroke-linejoin="round"/>
</svg>
