<svg width="15" height="15" viewBox="0 0 15 15" fill="none" xmlns="http://www.w3.org/2000/svg">
<path d="M4.71429 11.1539V3.78571M7.5 11.2004V7.5M10.2857 11.2143V5.64286M2.85714 1H12.1429C12.6354 1 13.1078 1.19566 13.4561 1.54394C13.8043 1.89223 14 2.3646 14 2.85714V12.1429C14 12.6354 13.8043 13.1078 13.4561 13.4561C13.1078 13.8043 12.6354 14 12.1429 14H2.85714C2.3646 14 1.89223 13.8043 1.54394 13.4561C1.19566 13.1078 1 12.6354 1 12.1429V2.85714C1 2.3646 1.19566 1.89223 1.54394 1.54394C1.89223 1.19566 2.3646 1 2.85714 1Z"  stroke-linecap="round" stroke-linejoin="round"/>
</svg>
