    <svg width="20" height="19" viewBox="0 0 20 19"  xmlns="http://www.w3.org/2000/svg">
        <path d="M19 2.79091H15.3333V0.5H14V2.79091H6V0.5H4.66667V2.79091H1C0.734878 2.79121 0.480704 2.89475 0.293234 3.07881C0.105765 3.26287 0.000308769 3.51243 0 3.77273V17.5182C0.000308769 17.7785 0.105765 18.028 0.293234 18.2121C0.480704 18.3962 0.734878 18.4997 1 18.5H19C19.2651 18.4997 19.5193 18.3962 19.7068 18.2121C19.8942 18.028 19.9997 17.7785 20 17.5182V3.77273C19.9997 3.51243 19.8942 3.26287 19.7068 3.07881C19.5193 2.89475 19.2651 2.79121 19 2.79091ZM18.6667 17.1909H1.33333V4.1H4.66667V5.73636H6V4.1H14V5.73636H15.3333V4.1H18.6667V17.1909Z" />
        <path d="M4 7.5H5.33333V8.77273H4V7.5ZM7.66667 7.5H9V8.77273H7.66667V7.5ZM11 7.5H12.3333V8.77273H11V7.5ZM14.6667 7.5H16V8.77273H14.6667V7.5ZM4 10.3636H5.33333V11.6364H4V10.3636ZM7.66667 10.3636H9V11.6364H7.66667V10.3636ZM11 10.3636H12.3333V11.6364H11V10.3636ZM14.6667 10.3636H16V11.6364H14.6667V10.3636ZM4 13.2273H5.33333V14.5H4V13.2273ZM7.66667 13.2273H9V14.5H7.66667V13.2273ZM11 13.2273H12.3333V14.5H11V13.2273ZM14.6667 13.2273H16V14.5H14.6667V13.2273Z" />
    </svg>