<svg  viewBox="0 0 15 16" fill="none" xmlns="http://www.w3.org/2000/svg">
<path d="M13.4859 16C13.9172 16 14.2772 15.846 14.5659 15.538C14.8553 15.2293 15 14.845 15 14.385V1.615C15 1.155 14.8553 0.771 14.5659 0.463C14.2772 0.154333 13.9172 0 13.4859 0H7.48219V1H13.4859C13.6297 1 13.7619 1.064 13.8825 1.192C14.0025 1.32067 14.0625 1.46167 14.0625 1.615V14.385C14.0625 14.5383 14.0025 14.6793 13.8825 14.808C13.7619 14.936 13.6297 15 13.4859 15H7.48219V16H13.4859ZM3.31688 11.538L3.975 10.819L1.80094 8.5H10.1325V7.5H1.80094L3.97594 5.18L3.31688 4.462L0 8L3.31688 11.538Z" />
</svg>
