<svg width="11" height="15" viewBox="0 0 11 15" fill="none" xmlns="http://www.w3.org/2000/svg">
<path d="M11 5.50194C11.0005 4.57529 10.7668 3.66353 10.3206 2.85134C9.87436 2.03916 9.23005 1.35289 8.44752 0.85629C7.66498 0.359686 6.76961 0.0688527 5.84455 0.0108016C4.9195 -0.0472494 3.99478 0.129365 3.15627 0.524241C2.31776 0.919117 1.59268 1.51945 1.04835 2.26947C0.504025 3.01949 0.15812 3.89488 0.0427641 4.81432C-0.072592 5.73377 0.0463424 6.66745 0.38852 7.52864C0.730698 8.38983 1.28502 9.1506 2 9.74029V14.4998C1.99994 14.585 2.02169 14.6689 2.06318 14.7433C2.10467 14.8178 2.16452 14.8805 2.23705 14.9253C2.30958 14.9701 2.39237 14.9957 2.47756 14.9995C2.56274 15.0033 2.64749 14.9853 2.72375 14.9472L5.5 13.5625L8.27687 14.9503C8.34649 14.9836 8.42283 15.0005 8.5 14.9996C8.63261 14.9996 8.75978 14.947 8.85355 14.8532C8.94732 14.7595 9 14.6323 9 14.4998V9.74029C9.62558 9.22518 10.1293 8.578 10.4751 7.84521C10.8209 7.11242 11.0002 6.31218 11 5.50194ZM1 5.50194C1 4.61214 1.26392 3.74232 1.75839 3.00247C2.25285 2.26263 2.95566 1.686 3.77792 1.34548C4.60019 1.00497 5.50499 0.915878 6.37791 1.08947C7.25082 1.26306 8.05264 1.69154 8.68198 2.32072C9.31132 2.94991 9.7399 3.75154 9.91353 4.62424C10.0872 5.49695 9.99805 6.40153 9.65746 7.2236C9.31686 8.04566 8.74009 8.7483 8.00006 9.24265C7.26004 9.73699 6.39002 10.0009 5.5 10.0009C4.30693 9.99953 3.16311 9.52511 2.31948 8.68169C1.47585 7.83826 1.00132 6.69472 1 5.50194ZM2 5.50194C2 4.80987 2.20527 4.13334 2.58986 3.55791C2.97444 2.98248 3.52107 2.53398 4.16061 2.26914C4.80015 2.0043 5.50388 1.935 6.18282 2.07002C6.86175 2.20503 7.48539 2.5383 7.97487 3.02766C8.46436 3.51703 8.7977 4.14052 8.93275 4.81929C9.0678 5.49805 8.99848 6.20162 8.73358 6.84101C8.46867 7.48039 8.02007 8.02689 7.4445 8.41138C6.86892 8.79587 6.19223 9.00109 5.5 9.00109C4.57205 9.0001 3.68238 8.63112 3.02622 7.97512C2.37006 7.31911 2.00099 6.42967 2 5.50194Z" fill="#FFD60D"/>
</svg>
