<svg width="24" height="30" viewBox="0 0 24 30" fill="none" xmlns="http://www.w3.org/2000/svg">
<path d="M15.9974 23.3077V24.3462C15.9974 25.4478 15.5763 26.5044 14.8268 27.2834C14.0773 28.0624 13.0607 28.5 12.0007 28.5C10.9408 28.5 9.92423 28.0624 9.17472 27.2834C8.42521 26.5044 8.00414 25.4478 8.00414 24.3462V23.3077M22.7217 21.1938C21.118 19.1538 19.9858 18.1154 19.9858 12.4915C19.9858 7.34135 17.4555 5.50651 15.3729 4.61538C15.0962 4.49726 14.8358 4.22596 14.7515 3.93065C14.3862 2.63841 13.3621 1.5 12.0007 1.5C10.6394 1.5 9.61464 2.63906 9.25308 3.93195C9.16877 4.2305 8.90837 4.49726 8.63173 4.61538C6.54662 5.50781 4.01876 7.33615 4.01876 12.4915C4.01564 18.1154 2.88348 19.1538 1.27984 21.1938C0.615401 22.0388 1.19741 23.3077 2.35955 23.3077H21.6482C22.8041 23.3077 23.3823 22.0349 22.7217 21.1938Z"  stroke-width="2" stroke-linecap="round" stroke-linejoin="round"/>
</svg>
