<svg width="11" height="14" viewBox="0 0 11 14" fill="none" xmlns="http://www.w3.org/2000/svg">
        <path d="M0.745966 2.75835H4.34274L2.54435 0.617233L0.745966 2.75835ZM2.54387 0.288069L2.5434 0.287056L2.54387 0.288069ZM4.80444 2.97236L4.80649 2.97333L4.80444 2.97236Z" />
        <path d="M1.96094 13.0235C1.96094 13.2996 2.18479 13.5235 2.46094 13.5235C2.73708 13.5235 2.96094 13.2996 2.96094 13.0235L1.96094 13.0235ZM1.96093 3.2583L1.96094 13.0235L2.96094 13.0235L2.96093 3.2583L1.96093 3.2583Z" />
        <path d="M6.65612 11.2416H10.2529L8.45451 13.3828L6.65612 11.2416ZM8.45403 13.7119L8.45356 13.7129L8.45403 13.7119ZM10.7146 11.0276L10.7166 11.0267L10.7146 11.0276Z" />
        <path d="M7.87109 0.97653C7.87109 0.700388 8.09495 0.47653 8.37109 0.47653C8.64724 0.47653 8.87109 0.700388 8.87109 0.97653L7.87109 0.97653ZM7.87109 10.7417L7.87109 0.97653L8.87109 0.97653L8.87109 10.7417L7.87109 10.7417Z" />
</svg>
